<svg width="600" height="600" viewBox="0 0 600 600" fill="none" xmlns="http://www.w3.org/2000/svg">
<g style="mix-blend-mode:overlay" opacity="0.5" clip-path="url(#clip0_1_35)" filter="url(#filter0_b_1_35)">
<path d="M401.755 373.195L353.508 324.749C351.849 323.081 349.168 323.081 347.509 324.749L340.574 331.718L332.064 323.167L355.89 299.222C368.314 286.779 368.612 266.768 356.571 254.709C344.531 242.651 324.661 242.908 312.238 255.394L288.454 279.296L279.945 270.745L286.88 263.775C288.539 262.107 288.539 259.413 286.88 257.746L238.632 209.299C236.931 207.674 234.293 207.674 232.633 209.299L208.51 233.5C206.85 235.168 206.85 237.862 208.51 239.529L256.757 288.018C258.417 289.686 261.097 289.686 262.756 288.018L273.946 276.773L282.455 285.324L260.288 307.602C258.629 309.269 258.629 311.963 260.288 313.631L261.863 315.213C250.035 313.845 238.25 317.992 229.825 326.459C228.166 328.126 228.166 330.82 229.825 332.488L279.18 382.089C280.839 383.756 283.519 383.756 285.179 382.089C292.539 374.734 296.666 364.728 296.623 354.295C296.623 352.841 296.538 351.388 296.368 349.934L297.9 351.473C299.559 353.141 302.24 353.141 303.899 351.473L326.065 329.238L334.575 337.79L323.428 348.993C321.768 350.661 321.768 353.354 323.428 355.022L371.633 403.468C373.292 405.136 375.972 405.136 377.632 403.468L401.755 379.224C403.415 377.556 403.415 374.862 401.755 373.195ZM259.736 278.953L217.53 236.537L235.612 218.364L277.818 260.781L259.736 278.953ZM281.945 372.853L239.015 329.666C250.971 320.644 267.649 321.627 278.499 331.975L280.115 333.6C285.264 339.244 288.114 346.641 288.114 354.295C288.114 361.008 285.987 367.508 281.945 372.853ZM300.92 342.408L286.157 327.571C285.817 327.186 285.519 326.801 285.179 326.459C284.838 326.117 284.455 325.818 284.115 325.476L269.309 310.596L318.279 261.379C327.384 252.229 341.85 251.93 350.572 260.695C359.294 269.461 358.996 283.999 349.891 293.149L300.92 342.408ZM374.611 394.403L332.405 351.986L350.487 333.814L392.693 376.231L374.611 394.403Z" fill="#3F3001"/>
<path d="M255.311 392.779C245.27 402.827 229.06 402.827 219.019 392.779C208.978 382.73 209.02 366.396 219.019 356.305C220.635 354.594 220.593 351.9 218.934 350.276C217.274 348.694 214.679 348.694 213.02 350.276C199.66 363.702 199.66 385.424 213.02 398.85C226.379 412.276 247.993 412.276 261.352 398.85C262.969 397.14 262.927 394.446 261.267 392.821C259.608 391.196 256.97 391.196 255.311 392.779Z" fill="#3F3001"/>
<path d="M235.229 358.956C233.57 357.288 230.889 357.288 229.23 358.956C222.72 365.498 222.72 376.145 229.23 382.73C235.739 389.272 246.334 389.272 252.886 382.73C254.502 381.019 254.46 378.326 252.801 376.701C251.142 375.119 248.546 375.119 246.887 376.701C243.696 379.908 238.463 379.908 235.272 376.701C232.081 373.494 232.081 368.235 235.272 365.028C236.846 363.317 236.846 360.623 235.229 358.956Z" fill="#3F3001"/>
</g>
<g clip-path="url(#clip1_1_35)" filter="url(#filter1_ii_1_35)">
<path d="M398.755 365.195L350.508 316.749C348.849 315.081 346.168 315.081 344.509 316.749L337.574 323.718L329.064 315.167L352.89 291.222C365.314 278.779 365.612 258.768 353.571 246.709C341.531 234.651 321.661 234.908 309.238 247.394L285.454 271.296L276.945 262.745L283.88 255.775C285.539 254.107 285.539 251.413 283.88 249.746L235.632 201.299C233.931 199.674 231.293 199.674 229.633 201.299L205.51 225.5C203.85 227.168 203.85 229.862 205.51 231.529L253.757 280.018C255.417 281.686 258.097 281.686 259.756 280.018L270.946 268.773L279.455 277.324L257.288 299.602C255.629 301.269 255.629 303.963 257.288 305.631L258.863 307.213C247.035 305.845 235.25 309.992 226.825 318.459C225.166 320.126 225.166 322.82 226.825 324.488L276.18 374.089C277.839 375.756 280.519 375.756 282.179 374.089C289.539 366.734 293.666 356.728 293.623 346.295C293.623 344.841 293.538 343.388 293.368 341.934L294.9 343.473C296.559 345.141 299.24 345.141 300.899 343.473L323.065 321.238L331.575 329.79L320.428 340.993C318.768 342.661 318.768 345.354 320.428 347.022L368.633 395.468C370.292 397.136 372.972 397.136 374.632 395.468L398.755 371.224C400.415 369.556 400.415 366.862 398.755 365.195ZM256.736 270.953L214.53 228.537L232.612 210.364L274.818 252.781L256.736 270.953ZM278.945 364.853L236.015 321.666C247.971 312.644 264.649 313.627 275.499 323.975L277.115 325.6C282.264 331.244 285.114 338.641 285.114 346.295C285.114 353.008 282.987 359.508 278.945 364.853ZM297.92 334.408L283.157 319.571C282.817 319.186 282.519 318.801 282.179 318.459C281.838 318.117 281.455 317.818 281.115 317.476L266.309 302.596L315.279 253.379C324.384 244.229 338.85 243.93 347.572 252.695C356.294 261.461 355.996 275.999 346.891 285.149L297.92 334.408ZM371.611 386.403L329.405 343.986L347.487 325.814L389.693 368.231L371.611 386.403Z" fill="black"/>
<path d="M252.311 384.779C242.27 394.827 226.06 394.827 216.019 384.779C205.978 374.73 206.02 358.396 216.019 348.305C217.635 346.594 217.593 343.9 215.934 342.276C214.274 340.694 211.679 340.694 210.02 342.276C196.66 355.702 196.66 377.424 210.02 390.85C223.379 404.276 244.993 404.276 258.352 390.85C259.969 389.14 259.927 386.446 258.267 384.821C256.608 383.196 253.97 383.196 252.311 384.779Z" fill="black"/>
<path d="M232.229 350.956C230.57 349.288 227.889 349.288 226.23 350.956C219.72 357.498 219.72 368.145 226.23 374.73C232.739 381.272 243.334 381.272 249.886 374.73C251.502 373.019 251.46 370.326 249.801 368.701C248.142 367.119 245.546 367.119 243.887 368.701C240.696 371.908 235.463 371.908 232.272 368.701C229.081 365.494 229.081 360.235 232.272 357.028C233.846 355.317 233.846 352.623 232.229 350.956Z" fill="black"/>
</g>
<defs>
<filter id="filter0_b_1_35" x="193" y="198" width="220" height="221" filterUnits="userSpaceOnUse" color-interpolation-filters="sRGB">
<feFlood flood-opacity="0" result="BackgroundImageFix"/>
<feGaussianBlur in="BackgroundImageFix" stdDeviation="5"/>
<feComposite in2="SourceAlpha" operator="in" result="effect1_backgroundBlur_1_35"/>
<feBlend mode="normal" in="SourceGraphic" in2="effect1_backgroundBlur_1_35" result="shape"/>
</filter>
<filter id="filter1_ii_1_35" x="200" y="170" width="200" height="251" filterUnits="userSpaceOnUse" color-interpolation-filters="sRGB">
<feFlood flood-opacity="0" result="BackgroundImageFix"/>
<feBlend mode="normal" in="SourceGraphic" in2="BackgroundImageFix" result="shape"/>
<feColorMatrix in="SourceAlpha" type="matrix" values="0 0 0 0 0 0 0 0 0 0 0 0 0 0 0 0 0 0 127 0" result="hardAlpha"/>
<feOffset dy="20"/>
<feGaussianBlur stdDeviation="20"/>
<feComposite in2="hardAlpha" operator="arithmetic" k2="-1" k3="1"/>
<feColorMatrix type="matrix" values="0 0 0 0 1 0 0 0 0 0.9975 0 0 0 0 0.9975 0 0 0 0.5 0"/>
<feBlend mode="overlay" in2="shape" result="effect1_innerShadow_1_35"/>
<feColorMatrix in="SourceAlpha" type="matrix" values="0 0 0 0 0 0 0 0 0 0 0 0 0 0 0 0 0 0 127 0" result="hardAlpha"/>
<feOffset dy="-30"/>
<feGaussianBlur stdDeviation="30"/>
<feComposite in2="hardAlpha" operator="arithmetic" k2="-1" k3="1"/>
<feColorMatrix type="matrix" values="0 0 0 0 0 0 0 0 0 0 0 0 0 0 0 0 0 0 0.5 0"/>
<feBlend mode="overlay" in2="effect1_innerShadow_1_35" result="effect2_innerShadow_1_35"/>
</filter>
<clipPath id="clip0_1_35">
<rect width="200" height="201" fill="white" transform="translate(203 208)"/>
</clipPath>
<clipPath id="clip1_1_35">
<rect width="200" height="201" fill="white" transform="translate(200 200)"/>
</clipPath>
</defs>
</svg>
